<svg width="57" height="57" viewBox="0 0 57 57" fill="none" xmlns="http://www.w3.org/2000/svg">
<path d="M39.4071 35.2527C44.5996 31.2908 48.8084 26.1848 51.7062 20.3314C54.6039 14.4781 56.1126 8.03526 56.1148 1.50391C56.1148 1.28635 56.0284 1.0777 55.8745 0.923859C55.7207 0.77002 55.512 0.683595 55.2945 0.683595C45.8521 0.681624 36.68 3.83565 29.2359 9.64441C26.3621 11.8826 23.7848 14.4773 21.5659 17.366C20.7856 17.8448 19.8671 18.0476 18.9577 17.9418C18.0483 17.836 17.2009 17.4279 16.5512 16.7828C15.481 15.7125 14.0296 15.1109 12.516 15.1102C11.0024 15.1094 9.55046 15.7095 8.47909 16.7787L0.354031 24.7848C0.27669 24.8611 0.215278 24.952 0.173363 25.0522C0.131448 25.1525 0.109863 25.2601 0.109863 25.3687C0.109863 25.4774 0.131448 25.5849 0.173363 25.6852C0.215278 25.7854 0.27669 25.8763 0.354031 25.9526L5.05497 30.5956C6.24151 31.761 7.75878 32.5319 9.3997 32.8031C11.0406 33.0742 12.7252 32.8324 14.2236 32.1106C14.2209 32.1207 14.2179 32.1305 14.2151 32.1405C14.1775 32.2798 14.1773 32.4265 14.2145 32.5659C14.2517 32.7053 14.325 32.8324 14.427 32.9345L16.793 35.3008L11.0046 36.5276C10.8601 36.5582 10.7265 36.6272 10.618 36.7274C10.5095 36.8276 10.4301 36.9552 10.3881 37.0968C10.3461 37.2383 10.3431 37.3886 10.3794 37.5318C10.4157 37.6749 10.49 37.8056 10.5944 37.9101L13.5065 40.8222C12.8493 40.4289 12.1341 40.1419 11.3874 39.9716C11.1498 39.9179 10.9116 39.8759 10.6815 39.8472C10.3936 39.8106 10.1037 39.7912 9.81347 39.7891C8.85337 39.7809 7.90133 39.9648 7.01333 40.3299C6.12533 40.695 5.3193 41.234 4.64262 41.9151C3.94387 42.6023 3.38916 43.422 3.01093 44.3261C2.6327 45.2303 2.43854 46.2008 2.43981 47.1808C2.43974 47.3948 2.52331 47.6004 2.67268 47.7536C2.82206 47.9069 3.0254 47.9957 3.23934 48.0011L3.858 48.0169C2.66074 49.6742 2.15787 51.7335 2.45649 53.7562C2.49364 53.9422 2.59427 54.1095 2.74116 54.2295C2.88806 54.3495 3.07208 54.4148 3.26177 54.4141H5.50286C5.72042 54.4141 5.92907 54.3276 6.08291 54.1738C6.23675 54.02 6.32317 53.8113 6.32317 53.5938C6.32317 53.3762 6.23675 53.1675 6.08291 53.0137C5.92907 52.8599 5.72042 52.7734 5.50286 52.7734H4.00852C3.98528 51.6797 4.22536 49.6073 6.21175 47.8544C6.33528 47.7455 6.42311 47.6019 6.46377 47.4423C6.50444 47.2827 6.49605 47.1146 6.4397 46.9598C6.38336 46.8051 6.28167 46.6709 6.14791 46.5748C6.01415 46.4787 5.85453 46.4252 5.68989 46.4212L4.13677 46.3821C4.31231 45.1285 4.89654 43.9679 5.79886 43.0801C6.31778 42.5579 6.93471 42.1433 7.61425 41.8601C8.2938 41.5768 9.02258 41.4306 9.75878 41.4297H9.80157C9.93214 41.4306 10.0631 41.4375 10.194 41.4475C9.69298 41.7428 9.26682 42.1496 8.94857 42.6363C8.63032 43.123 8.42854 43.6765 8.35891 44.2538L7.88847 48.0546C7.87419 48.1699 7.88459 48.287 7.91897 48.398C7.95335 48.509 8.01093 48.6115 8.0879 48.6986C8.16486 48.7857 8.25946 48.8554 8.36541 48.9032C8.47137 48.9509 8.58626 48.9757 8.70249 48.9757C8.73617 48.9756 8.76982 48.9736 8.80325 48.9695L12.604 48.4989C13.1818 48.4278 13.7354 48.2247 14.2221 47.9055C14.7088 47.5863 15.1157 47.1594 15.4111 46.6579C15.4229 46.8057 15.431 46.9547 15.4312 47.1048C15.4332 47.8503 15.2873 48.5889 15.002 49.2776C14.7167 49.9664 14.2977 50.5918 13.7691 51.1176C13.6913 51.1934 13.6292 51.2839 13.5866 51.3839C13.544 51.4838 13.5217 51.5913 13.5209 51.6999C13.5202 51.8086 13.5411 51.9163 13.5823 52.0168C13.6235 52.1174 13.6843 52.2087 13.7612 52.2855C13.838 52.3624 13.9293 52.4232 14.0298 52.4644C14.1304 52.5057 14.2381 52.5266 14.3468 52.5258C14.4554 52.5251 14.5628 52.5028 14.6628 52.4602C14.7628 52.4176 14.8533 52.3556 14.9291 52.2777C15.7172 51.4902 16.3149 50.533 16.6763 49.4791C17.0378 48.4253 17.1535 47.3027 17.0146 46.1973C16.9872 45.9685 16.9473 45.736 16.8962 45.5057C16.7269 44.7473 16.4374 44.0209 16.0385 43.3539L18.8887 46.2038C18.9915 46.3066 19.1197 46.3802 19.2602 46.4171C19.4007 46.454 19.5485 46.453 19.6885 46.414C19.8285 46.3751 19.9557 46.2997 20.0569 46.1955C20.1582 46.0913 20.23 45.9621 20.2649 45.821L21.6625 40.1703L23.7901 42.298C23.8916 42.3995 24.018 42.4726 24.1566 42.5099C24.2953 42.5473 24.4412 42.5477 24.58 42.5111C24.6291 42.4974 24.6777 42.4837 24.7267 42.47C23.9767 43.975 23.715 45.6765 23.9781 47.3373C24.2412 48.9981 25.016 50.5354 26.1944 51.7349L30.837 56.4648C30.9881 56.629 31.1978 56.7272 31.4206 56.7383C31.6436 56.7273 31.8533 56.6291 32.0044 56.4648L40.0066 48.3301C41.076 47.2568 41.6765 45.8034 41.6765 44.2883C41.6765 42.7731 41.076 41.3197 40.0066 40.2464C39.3655 39.5993 38.9584 38.7569 38.8498 37.8524C38.7412 36.948 38.9373 36.0331 39.4071 35.2527ZM54.4658 2.33256C54.4159 4.82745 54.137 7.3125 53.6326 9.75639C50.859 8.21925 48.5691 5.93898 47.0202 3.17188C49.471 2.66352 51.9634 2.38255 54.4658 2.33256ZM6.20737 29.4283L2.09788 25.3697L9.63423 17.943C10.3975 17.1798 11.4327 16.751 12.5122 16.751C13.5916 16.751 14.6268 17.1798 15.3901 17.943C15.9859 18.5354 16.7048 18.9896 17.4957 19.2732C18.2867 19.5569 19.1303 19.6631 19.9669 19.5844C17.8618 22.7076 16.181 26.0965 14.9684 29.6624C13.7492 30.7385 12.1675 31.3127 10.5419 31.2692C8.91621 31.2258 7.36741 30.568 6.20737 29.4283ZM14.2191 45.3119C14.1035 45.7218 13.8693 46.0885 13.546 46.3658C13.2226 46.6431 12.8246 46.8186 12.4018 46.8705L9.64585 47.2123L9.98765 44.457C10.043 44.0259 10.2259 43.6211 10.5128 43.2947C10.7998 42.9683 11.1777 42.7351 11.5982 42.6249C11.967 42.5308 12.354 42.5355 12.7204 42.6385C13.0868 42.7414 13.4196 42.9391 13.6854 43.2115C13.9511 43.484 14.1404 43.8216 14.2342 44.1905C14.328 44.5593 14.3231 44.9464 14.2198 45.3127L14.2191 45.3119ZM19.0211 44.0162L12.8237 37.819L18.1767 36.6842L20.3073 38.8145L19.0211 44.0162ZM24.6141 40.8018L15.9247 32.1124C16.0705 31.5965 16.2269 31.0839 16.394 30.5746C16.3989 30.5696 16.404 30.5653 16.4089 30.5609L16.4011 30.5531C18.3765 24.5722 21.6965 19.1238 26.1062 14.6264C30.516 10.1289 35.898 6.70221 41.8387 4.60947C42.9986 4.20269 44.1723 3.8505 45.3599 3.55291C47.1305 6.91512 49.8839 9.65772 53.253 11.4151C49.744 25.4175 38.9547 36.83 24.6141 40.8018ZM38.8425 47.1592L31.42 54.6916L27.3613 50.5822C26.2048 49.4052 25.5452 47.8286 25.5189 46.1787C25.4927 44.5288 26.1018 42.932 27.2202 41.7188C30.7501 40.535 34.1075 38.8889 37.2051 36.8234C37.1266 37.6598 37.233 38.5033 37.5167 39.294C37.8004 40.0847 38.2544 40.8035 38.8467 41.3993C39.6093 42.164 40.0372 43.2002 40.0364 44.2802C40.0356 45.3602 39.6062 46.3958 38.8425 47.1595V47.1592Z" fill="#0082F4"/>
</svg>
